<mxfile host="app.diagrams.net" agent="Mozilla/5.0 (Windows NT 10.0; Win64; x64) AppleWebKit/537.36 (KHTML, like Gecko) Chrome/138.0.0.0 Safari/537.36 Edg/138.0.0.0" version="28.0.6">
  <diagram name="페이지-1" id="M0tbnselP6ZzbopTk5rP">
    <mxGraphModel dx="2008" dy="2407" grid="1" gridSize="10" guides="1" tooltips="1" connect="1" arrows="1" fold="1" page="1" pageScale="1" pageWidth="827" pageHeight="1169" math="0" shadow="0">
      <root>
        <mxCell id="0" />
        <mxCell id="1" parent="0" />
        <mxCell id="sVL81bUTCZYpE5jUuNYF-8" style="edgeStyle=orthogonalEdgeStyle;rounded=0;orthogonalLoop=1;jettySize=auto;html=1;" edge="1" parent="1" source="jAhalYrTm7OzA3xliaxw-1" target="sVL81bUTCZYpE5jUuNYF-1">
          <mxGeometry relative="1" as="geometry" />
        </mxCell>
        <mxCell id="sVL81bUTCZYpE5jUuNYF-32" style="edgeStyle=orthogonalEdgeStyle;rounded=0;orthogonalLoop=1;jettySize=auto;html=1;entryX=0;entryY=0.5;entryDx=0;entryDy=0;" edge="1" parent="1" source="jAhalYrTm7OzA3xliaxw-1" target="sVL81bUTCZYpE5jUuNYF-9">
          <mxGeometry relative="1" as="geometry">
            <mxPoint x="200" y="205" as="targetPoint" />
          </mxGeometry>
        </mxCell>
        <mxCell id="jAhalYrTm7OzA3xliaxw-1" value="비회원" style="shape=umlActor;verticalLabelPosition=bottom;verticalAlign=top;html=1;outlineConnect=0;" parent="1" vertex="1">
          <mxGeometry x="130" y="160" width="45" height="90" as="geometry" />
        </mxCell>
        <mxCell id="sVL81bUTCZYpE5jUuNYF-33" value="" style="edgeStyle=orthogonalEdgeStyle;rounded=0;orthogonalLoop=1;jettySize=auto;html=1;entryX=-0.016;entryY=0.541;entryDx=0;entryDy=0;entryPerimeter=0;" edge="1" parent="1" source="sVL81bUTCZYpE5jUuNYF-1" target="sVL81bUTCZYpE5jUuNYF-4">
          <mxGeometry relative="1" as="geometry" />
        </mxCell>
        <mxCell id="sVL81bUTCZYpE5jUuNYF-1" value="회원(고객)" style="shape=umlActor;verticalLabelPosition=bottom;verticalAlign=top;html=1;outlineConnect=0;" vertex="1" parent="1">
          <mxGeometry x="130" y="430" width="45" height="90" as="geometry" />
        </mxCell>
        <mxCell id="sVL81bUTCZYpE5jUuNYF-4" value="&lt;font style=&quot;font-size: 13px;&quot;&gt;로그인&lt;/font&gt;" style="ellipse;whiteSpace=wrap;html=1;" vertex="1" parent="1">
          <mxGeometry x="280" y="432" width="120" height="80" as="geometry" />
        </mxCell>
        <mxCell id="sVL81bUTCZYpE5jUuNYF-5" value="박람회 목록 조회" style="ellipse;whiteSpace=wrap;html=1;" vertex="1" parent="1">
          <mxGeometry x="530" y="440" width="120" height="80" as="geometry" />
        </mxCell>
        <mxCell id="sVL81bUTCZYpE5jUuNYF-6" value="박람회 관리자" style="shape=umlActor;verticalLabelPosition=bottom;verticalAlign=top;html=1;outlineConnect=0;" vertex="1" parent="1">
          <mxGeometry x="130" y="830" width="45" height="90" as="geometry" />
        </mxCell>
        <mxCell id="sVL81bUTCZYpE5jUuNYF-7" value="전체 관리자" style="shape=umlActor;verticalLabelPosition=bottom;verticalAlign=top;html=1;outlineConnect=0;" vertex="1" parent="1">
          <mxGeometry x="130" y="2910" width="45" height="90" as="geometry" />
        </mxCell>
        <mxCell id="sVL81bUTCZYpE5jUuNYF-31" style="edgeStyle=orthogonalEdgeStyle;rounded=0;orthogonalLoop=1;jettySize=auto;html=1;" edge="1" parent="1" source="sVL81bUTCZYpE5jUuNYF-9" target="sVL81bUTCZYpE5jUuNYF-4">
          <mxGeometry relative="1" as="geometry" />
        </mxCell>
        <mxCell id="sVL81bUTCZYpE5jUuNYF-9" value="&lt;font style=&quot;font-size: 13px;&quot;&gt;회원 가입&lt;/font&gt;" style="ellipse;whiteSpace=wrap;html=1;" vertex="1" parent="1">
          <mxGeometry x="280" y="165" width="120" height="80" as="geometry" />
        </mxCell>
        <mxCell id="sVL81bUTCZYpE5jUuNYF-11" value="대시 보드" style="ellipse;whiteSpace=wrap;html=1;" vertex="1" parent="1">
          <mxGeometry x="530" y="730" width="120" height="80" as="geometry" />
        </mxCell>
        <mxCell id="sVL81bUTCZYpE5jUuNYF-12" value="얘약자 명단" style="ellipse;whiteSpace=wrap;html=1;" vertex="1" parent="1">
          <mxGeometry x="530" y="590" width="120" height="80" as="geometry" />
        </mxCell>
        <mxCell id="sVL81bUTCZYpE5jUuNYF-13" value="콘텐츠 관리" style="ellipse;whiteSpace=wrap;html=1;" vertex="1" parent="1">
          <mxGeometry x="530" y="970" width="120" height="80" as="geometry" />
        </mxCell>
        <mxCell id="sVL81bUTCZYpE5jUuNYF-14" value="통계 리포트" style="ellipse;whiteSpace=wrap;html=1;" vertex="1" parent="1">
          <mxGeometry x="530" y="1100" width="120" height="80" as="geometry" />
        </mxCell>
        <mxCell id="sVL81bUTCZYpE5jUuNYF-15" value="설정" style="ellipse;whiteSpace=wrap;html=1;" vertex="1" parent="1">
          <mxGeometry x="530" y="1230" width="120" height="80" as="geometry" />
        </mxCell>
        <mxCell id="sVL81bUTCZYpE5jUuNYF-16" value="박람회 조회" style="ellipse;whiteSpace=wrap;html=1;" vertex="1" parent="1">
          <mxGeometry x="530" y="280" width="120" height="80" as="geometry" />
        </mxCell>
        <mxCell id="sVL81bUTCZYpE5jUuNYF-17" value="박람회 상세 조회" style="ellipse;whiteSpace=wrap;html=1;" vertex="1" parent="1">
          <mxGeometry x="760" y="440" width="120" height="80" as="geometry" />
        </mxCell>
        <mxCell id="sVL81bUTCZYpE5jUuNYF-19" value="로그인" style="ellipse;whiteSpace=wrap;html=1;" vertex="1" parent="1">
          <mxGeometry x="280" y="840" width="120" height="80" as="geometry" />
        </mxCell>
        <mxCell id="sVL81bUTCZYpE5jUuNYF-20" value="로그인" style="ellipse;whiteSpace=wrap;html=1;" vertex="1" parent="1">
          <mxGeometry x="280" y="2930" width="120" height="80" as="geometry" />
        </mxCell>
        <mxCell id="sVL81bUTCZYpE5jUuNYF-22" value="전체 대시보드" style="ellipse;whiteSpace=wrap;html=1;" vertex="1" parent="1">
          <mxGeometry x="520" y="2930" width="120" height="80" as="geometry" />
        </mxCell>
        <mxCell id="sVL81bUTCZYpE5jUuNYF-23" value="박람회 관리" style="ellipse;whiteSpace=wrap;html=1;" vertex="1" parent="1">
          <mxGeometry x="520" y="2790" width="120" height="80" as="geometry" />
        </mxCell>
        <mxCell id="sVL81bUTCZYpE5jUuNYF-24" value="계정 관리" style="ellipse;whiteSpace=wrap;html=1;" vertex="1" parent="1">
          <mxGeometry x="520" y="2230" width="120" height="80" as="geometry" />
        </mxCell>
        <mxCell id="sVL81bUTCZYpE5jUuNYF-25" value="VIP 배너 광고 관리" style="ellipse;whiteSpace=wrap;html=1;" vertex="1" parent="1">
          <mxGeometry x="520" y="3080" width="120" height="80" as="geometry" />
        </mxCell>
        <mxCell id="sVL81bUTCZYpE5jUuNYF-26" value="결제/정산" style="ellipse;whiteSpace=wrap;html=1;" vertex="1" parent="1">
          <mxGeometry x="520" y="3260" width="120" height="80" as="geometry" />
        </mxCell>
        <mxCell id="sVL81bUTCZYpE5jUuNYF-27" value="통합 통계" style="ellipse;whiteSpace=wrap;html=1;" vertex="1" parent="1">
          <mxGeometry x="520" y="3400" width="120" height="80" as="geometry" />
        </mxCell>
        <mxCell id="sVL81bUTCZYpE5jUuNYF-28" value="시스템 설정" style="ellipse;whiteSpace=wrap;html=1;" vertex="1" parent="1">
          <mxGeometry x="520" y="3570" width="120" height="80" as="geometry" />
        </mxCell>
        <mxCell id="sVL81bUTCZYpE5jUuNYF-29" value="로그/보안" style="ellipse;whiteSpace=wrap;html=1;" vertex="1" parent="1">
          <mxGeometry x="520" y="3730" width="120" height="80" as="geometry" />
        </mxCell>
        <mxCell id="sVL81bUTCZYpE5jUuNYF-30" value="현장 입장 스캐너 모드" style="ellipse;whiteSpace=wrap;html=1;" vertex="1" parent="1">
          <mxGeometry x="530" y="840" width="120" height="80" as="geometry" />
        </mxCell>
        <mxCell id="sVL81bUTCZYpE5jUuNYF-35" value="&lt;font style=&quot;font-size: 13px;&quot;&gt;박람회 목록 조회&lt;/font&gt;" style="ellipse;whiteSpace=wrap;html=1;" vertex="1" parent="1">
          <mxGeometry x="530" y="-50" width="120" height="80" as="geometry" />
        </mxCell>
        <mxCell id="sVL81bUTCZYpE5jUuNYF-36" value="박람회 생성" style="ellipse;whiteSpace=wrap;html=1;" vertex="1" parent="1">
          <mxGeometry x="780" y="2660" width="120" height="80" as="geometry" />
        </mxCell>
        <mxCell id="sVL81bUTCZYpE5jUuNYF-37" value="박람회 수정" style="ellipse;whiteSpace=wrap;html=1;" vertex="1" parent="1">
          <mxGeometry x="780" y="2530" width="120" height="80" as="geometry" />
        </mxCell>
        <mxCell id="sVL81bUTCZYpE5jUuNYF-38" value="박람회 삭제" style="ellipse;whiteSpace=wrap;html=1;" vertex="1" parent="1">
          <mxGeometry x="780" y="2400" width="120" height="80" as="geometry" />
        </mxCell>
        <mxCell id="sVL81bUTCZYpE5jUuNYF-40" value="박람회 목록&amp;nbsp;&lt;div&gt;조회&lt;/div&gt;" style="ellipse;whiteSpace=wrap;html=1;" vertex="1" parent="1">
          <mxGeometry x="780" y="2780" width="120" height="80" as="geometry" />
        </mxCell>
        <mxCell id="sVL81bUTCZYpE5jUuNYF-42" value="박람회 상세&amp;nbsp;&lt;span style=&quot;background-color: transparent; color: light-dark(rgb(0, 0, 0), rgb(255, 255, 255));&quot;&gt;조회&lt;/span&gt;" style="ellipse;whiteSpace=wrap;html=1;" vertex="1" parent="1">
          <mxGeometry x="990" y="2780" width="120" height="80" as="geometry" />
        </mxCell>
        <mxCell id="sVL81bUTCZYpE5jUuNYF-43" value="계정 생성" style="ellipse;whiteSpace=wrap;html=1;" vertex="1" parent="1">
          <mxGeometry x="780" y="2230" width="120" height="80" as="geometry" />
        </mxCell>
        <mxCell id="sVL81bUTCZYpE5jUuNYF-44" value="계정 수정" style="ellipse;whiteSpace=wrap;html=1;" vertex="1" parent="1">
          <mxGeometry x="780" y="2123" width="120" height="80" as="geometry" />
        </mxCell>
        <mxCell id="sVL81bUTCZYpE5jUuNYF-46" value="계정 삭제" style="ellipse;whiteSpace=wrap;html=1;" vertex="1" parent="1">
          <mxGeometry x="780" y="2010" width="120" height="80" as="geometry" />
        </mxCell>
        <mxCell id="sVL81bUTCZYpE5jUuNYF-47" value="비회원" style="shape=umlActor;verticalLabelPosition=bottom;verticalAlign=top;html=1;outlineConnect=0;" vertex="1" parent="1">
          <mxGeometry x="130" y="1730" width="45" height="90" as="geometry" />
        </mxCell>
        <mxCell id="sVL81bUTCZYpE5jUuNYF-50" value="박람회 참가 신청" style="ellipse;whiteSpace=wrap;html=1;" vertex="1" parent="1">
          <mxGeometry x="290" y="1840" width="120" height="80" as="geometry" />
        </mxCell>
        <mxCell id="sVL81bUTCZYpE5jUuNYF-51" value="신청서 검토" style="ellipse;whiteSpace=wrap;html=1;" vertex="1" parent="1">
          <mxGeometry x="520" y="1900" width="120" height="80" as="geometry" />
        </mxCell>
        <mxCell id="sVL81bUTCZYpE5jUuNYF-54" value="계정 발급(Email)" style="ellipse;whiteSpace=wrap;html=1;" vertex="1" parent="1">
          <mxGeometry x="1050" y="2230" width="120" height="80" as="geometry" />
        </mxCell>
      </root>
    </mxGraphModel>
  </diagram>
</mxfile>
